<?xml version="1.0" encoding="utf-8"?>
<!-- Generator: Adobe Illustrator 16.0.0, SVG Export Plug-In . SVG Version: 6.00 Build 0)  -->
<!DOCTYPE svg PUBLIC "-//W3C//DTD SVG 1.1//EN" "http://www.w3.org/Graphics/SVG/1.1/DTD/svg11.dtd">
<svg version="1.1" id="Calque_1" xmlns="http://www.w3.org/2000/svg" xmlns:xlink="http://www.w3.org/1999/xlink" x="0px" y="0px"
	 width="55px" height="55px" viewBox="0 0 55 55" enable-background="new 0 0 55 55" xml:space="preserve">
<path fill="#666666" d="M27.499,0.159C12.37,0.159,0.158,12.372,0.158,27.5c0,15.129,12.212,27.34,27.341,27.34
	c15.13,0,27.343-12.211,27.343-27.34C54.842,12.372,42.629,0.159,27.499,0.159z M45.605,27.5L35.58,37.708l-1.701-1.701l8.324-8.506
	l-8.506-8.506l1.701-1.701L45.605,27.5z M21.302,18.994L12.796,27.5l8.324,8.506l-1.701,1.701L9.394,27.5l10.207-10.208
	L21.302,18.994z M28.959,14.923l2.309,0.486L25.98,40.077l-2.31-0.486L28.959,14.923z"/>
</svg>
